<svg id="Layer_1" enable-background="new 0 0 512 512" viewBox="0 0 512 512" xmlns="http://www.w3.org/2000/svg"><g><path d="m431.618 0h-351.236c-6.075 0-11 4.925-11 11v490c0 6.075 4.925 11 11 11h351.236c6.075 0 11-4.925 11-11v-490c0-6.075-4.925-11-11-11zm-11 161.894h-153.618v-139.894h153.618zm-329.236 166.212v-144.212h329.236v144.213h-329.236zm153.618-306.106v139.894h-153.618v-139.894zm-153.618 328.106h153.618v139.894h-153.618zm175.618 139.894v-139.894h153.618v139.894z"/><path d="m460.911 245h-409.822c-6.075 0-11 4.925-11 11s4.925 11 11 11h409.822c6.075 0 11-4.925 11-11s-4.925-11-11-11z" fill="#3cc"/></g><g/><g/><g/><g/><g/><g/><g/><g/><g/><g/><g/><g/><g/><g/><g/></svg>