<svg id="Layer_1" viewBox="0 0 512 512" xmlns="http://www.w3.org/2000/svg" data-name="Layer 1"><path d="m484.14 421.52h-456.28c-15.07 0-27.33-12.26-27.33-27.33v-276.38c0-15.07 12.26-27.33 27.33-27.33h456.27c15.07 0 27.33 12.26 27.33 27.33v276.38c0 15.07-12.26 27.33-27.33 27.33zm-453.61-30h450.94v-271.04h-450.94v271.05z"/><path d="m140.69 342.29h-34.68c-21.89 0-39.71-17.81-39.71-39.71v-93.18c0-21.89 17.81-39.71 39.71-39.71h34.68c21.89 0 39.71 17.81 39.71 39.71v93.18c0 21.89-17.81 39.71-39.71 39.71zm-34.67-142.58c-5.35 0-9.71 4.35-9.71 9.71v93.18c0 5.35 4.35 9.71 9.71 9.71h34.68c5.35 0 9.71-4.35 9.71-9.71v-93.18c0-5.35-4.35-9.71-9.71-9.71z"/><path d="m405.98 342.29h-34.68c-21.89 0-39.71-17.81-39.71-39.71v-93.18c0-21.89 17.81-39.71 39.71-39.71h34.68c21.89 0 39.71 17.81 39.71 39.71v93.18c0 21.89-17.81 39.71-39.71 39.71zm-34.67-142.58c-5.35 0-9.71 4.35-9.71 9.71v93.18c0 5.35 4.35 9.71 9.71 9.71h34.68c5.35 0 9.71-4.35 9.71-9.71v-93.18c0-5.35-4.35-9.71-9.71-9.71z"/><path d="m256 317.94c-8.28 0-15-6.72-15-15v-20.47c0-8.28 6.72-15 15-15s15 6.72 15 15v20.47c0 8.28-6.72 15-15 15z"/><path d="m256 244.53c-8.28 0-15-6.72-15-15v-20.47c0-8.28 6.72-15 15-15s15 6.72 15 15v20.47c0 8.28-6.72 15-15 15z"/></svg>